<svg width="438" height="443" viewBox="0 0 438 443" fill="none" xmlns="http://www.w3.org/2000/svg">
<path d="M1.01142 141.205L70.6267 268.736C74.1824 275.318 68.4618 283.02 61.3175 281.775L30.1391 276.286C25.2747 275.569 20.6079 278.707 19.8917 283.575L12.64 324.21C11.9239 329.078 15.0597 333.749 19.9241 334.467L163.149 359.662C170.614 360.89 173.017 370.108 167.486 375.223L143.773 396.086C140.085 399.496 139.723 404.991 143.131 408.681L170.457 439.492C173.864 443.183 179.354 443.546 183.042 440.136L291.714 343.734C297.246 338.619 306.127 342.352 306.522 350.062L308.151 381.867C308.398 386.686 312.464 390.665 317.6 390.402L358.688 388.297C363.503 388.05 367.479 383.981 367.215 378.841L359.776 233.63C359.397 226.241 367.851 221.62 373.859 225.822L399.58 244.153C403.597 247.168 409.021 246.246 412.034 242.226L436.068 208.784C439.08 204.765 438.159 199.336 434.142 196.321L316.187 111.529C310.162 107.006 311.61 97.5911 318.911 95.6066L349.365 86.9599C354.131 85.7494 356.773 80.7825 355.563 76.0129L344.197 36.3318C342.987 31.5622 338.024 28.9174 333.258 30.1279L193.358 69.828C186.058 71.8126 179.901 64.7195 182.765 57.8085L195.104 28.5088C197.12 23.896 194.931 18.8545 190.322 16.8359L152.164 0.752687C147.554 -1.26593 142.517 0.924817 140.501 5.53764L84.2828 139.515C81.4184 146.426 71.7883 146.92 68.2326 140.338L52.9647 112.452C50.4873 108.07 45.2524 106.405 40.8736 108.884L4.55899 128.783C0.19666 131.583 -1.145 136.806 1.01142 141.205ZM134.886 172.355L165.275 99.6122C168.411 91.721 179.711 92.4305 182.065 100.685L188.707 123.536C189.917 128.306 194.88 130.95 199.646 129.74L275.46 108.14C283.708 105.785 289.98 115.127 285.173 121.815L271.361 141.205C268.349 145.225 269.271 150.653 273.287 153.668L337.438 199.664C344.442 204.459 341.15 215.58 332.804 216.007L309.05 217.224C304.235 217.471 300.259 221.54 300.522 226.68L304.555 305.39C304.983 313.743 294.587 318.14 288.784 311.673L272.759 294.134C269.352 290.444 263.862 290.081 260.174 293.491L201.364 345.464C194.887 350.95 185.281 345.644 186.78 337.192L191.051 313.782C191.768 308.913 188.632 304.242 183.767 303.525L106.142 289.786C97.6977 288.286 95.8377 277.108 103.361 273.179L124.341 261.797C128.72 259.318 130.383 254.079 127.905 249.696L90.2415 180.44C86.3155 172.911 93.608 164.484 101.51 167.945L123.543 177.123C127.815 178.837 132.869 176.968 134.886 172.355Z" fill="url(#paint0_linear_2009_1010)"/>
<defs>
<linearGradient id="paint0_linear_2009_1010" x1="425.675" y1="154.515" x2="-95.2035" y2="250.826" gradientUnits="userSpaceOnUse">
<stop stop-color="#0147FF"/>
<stop offset="1" stop-color="#0147FF" stop-opacity="0"/>
</linearGradient>
</defs>
</svg>
