<svg width="389" height="387" viewBox="0 0 389 387" fill="none" xmlns="http://www.w3.org/2000/svg">
<path d="M230.943 117.054L230.95 116.886L231.079 116.948L230.943 117.054ZM369.071 109.99L366.256 104.56C355.306 83.4212 340.536 64.4928 322.695 48.7299L319.438 45.8555L231.074 116.958C246.989 124.591 264.256 129.004 281.881 129.945C299.507 130.886 317.146 128.335 333.783 122.439L369.071 109.99ZM230.945 116.896L230.857 3.47575L226.576 2.74373C203.108 -1.25674 179.101 -0.879881 155.773 3.85889L149.778 5.07394L162.232 40.3538C168.083 57.006 177.164 72.3409 188.957 85.4745C200.749 98.6081 215.021 109.284 230.95 116.886L230.945 116.896ZM278.207 369.082L283.628 366.263C304.771 355.318 323.704 340.55 339.466 322.707L342.341 319.449L271.176 231.212C263.573 247.114 259.181 264.361 258.251 281.963C257.321 299.565 259.872 317.178 265.757 333.794L278.207 369.082ZM384.719 230.867L385.45 226.586C389.453 203.115 389.071 179.108 384.325 155.777L383.119 149.787L347.831 162.236C331.203 168.078 315.89 177.143 302.769 188.91C289.648 200.678 278.976 214.919 271.366 230.815L384.719 230.867ZM271.176 231.212L271.366 230.815L270.869 230.809L271.176 231.212ZM122.436 54.4008L109.986 19.1124L104.556 21.9281C83.4184 32.8769 64.4897 47.6476 48.7272 65.4886L45.8536 68.7446L116.927 157.171C124.571 141.247 128.992 123.97 129.936 106.334C130.878 88.6944 128.328 71.0455 122.427 54.3967L122.436 54.4008ZM2.74284 161.609C-1.25728 185.077 -0.879433 209.083 3.85874 232.413L5.07417 238.408L40.3535 225.954C57.0178 220.099 72.3627 211.009 85.5037 199.204C98.6465 187.401 109.324 173.116 116.927 157.171L3.47551 157.327L2.74284 161.609ZM157.105 271.242L157.234 271.303L157.227 271.141L157.105 271.242ZM19.1085 278.209L21.9287 283.63C32.8727 304.774 47.6397 323.707 65.4846 339.47L68.7403 342.344L157.105 271.242C141.187 263.613 123.92 259.203 106.293 258.264C88.6671 257.325 71.0288 259.875 54.3915 265.77L19.1085 278.209ZM157.234 271.303L157.322 384.724L161.604 385.456C185.073 389.459 209.082 389.077 232.412 384.331L238.402 383.125L225.952 347.837C220.099 331.185 211.016 315.852 199.224 302.719C187.431 289.585 173.162 278.909 157.234 271.303ZM157.216 271.136L157.377 271.03C191.19 248.085 230.337 234.223 271.055 230.777L270.944 230.626C247.996 196.813 234.133 157.665 230.69 116.945L230.544 117.046C196.734 139.999 157.585 153.862 116.866 157.3L116.962 157.456C139.915 191.263 153.78 230.409 157.221 271.126L157.216 271.136Z" fill="url(#paint0_linear_2001_136)"/>
<defs>
<linearGradient id="paint0_linear_2001_136" x1="12.0879" y1="258.31" x2="437.196" y2="147.123" gradientUnits="userSpaceOnUse">
<stop stop-color="#0147FF"/>
<stop offset="1" stop-color="#0147FF" stop-opacity="0"/>
</linearGradient>
</defs>
</svg>
