<svg width="21" height="20" viewBox="0 0 21 20" fill="none" xmlns="http://www.w3.org/2000/svg">
<path fill-rule="evenodd" clip-rule="evenodd" d="M6.56949 6.1195C7.56432 5.19281 8.91361 4.6722 10.3205 4.6722C11.7274 4.6722 13.0767 5.19281 14.0715 6.1195C15.0664 7.04619 15.6253 8.30305 15.6253 9.61358C15.6253 10.9241 15.0664 12.181 14.0715 13.1077C13.0767 14.0344 11.7274 14.555 10.3205 14.555C8.91361 14.555 7.56432 14.0344 6.56949 13.1077C5.57466 12.181 5.01577 10.9241 5.01577 9.61358C5.01577 8.30305 5.57466 7.04619 6.56949 6.1195ZM9.0027 12.5771C9.4205 12.7383 9.86829 12.8213 10.3205 12.8213C11.2338 12.8213 12.1097 12.4834 12.7555 11.8818C13.4013 11.2802 13.7641 10.4643 13.7641 9.61358C13.7641 8.76284 13.4013 7.94694 12.7555 7.34538C12.1097 6.74381 11.2338 6.40585 10.3205 6.40585C9.86829 6.40585 9.4205 6.48882 9.0027 6.65003C8.5849 6.81123 8.20528 7.04751 7.88551 7.34538C7.56574 7.64324 7.31209 7.99686 7.13903 8.38604C6.96597 8.77522 6.8769 9.19234 6.8769 9.61358C6.8769 10.0348 6.96597 10.452 7.13903 10.8411C7.31209 11.2303 7.56574 11.5839 7.88551 11.8818C8.20528 12.1797 8.5849 12.4159 9.0027 12.5771Z" fill="white"/>
<path d="M16.8012 5.40841C17.0364 5.18936 17.1685 4.89226 17.1685 4.58248C17.1685 4.27269 17.0364 3.97559 16.8012 3.75654C16.5661 3.53749 16.2471 3.41443 15.9146 3.41443C15.582 3.41443 15.2631 3.53749 15.0279 3.75654C14.7927 3.97559 14.6606 4.27269 14.6606 4.58248C14.6606 4.89226 14.7927 5.18936 15.0279 5.40841C15.2631 5.62746 15.582 5.75053 15.9146 5.75053C16.2471 5.75053 16.5661 5.62746 16.8012 5.40841Z" fill="white"/>
<path fill-rule="evenodd" clip-rule="evenodd" d="M6.06571 0.0576814C7.16656 0.0108954 7.51746 0 10.3205 0C13.1243 0 13.4745 0.0115362 14.5746 0.0576814C15.6734 0.104468 16.4248 0.267899 17.0811 0.504392C17.7695 0.745923 18.3931 1.12429 18.9086 1.61316C19.4335 2.0934 19.8398 2.67454 20.0989 3.31604C20.3541 3.92747 20.5289 4.6267 20.5791 5.65022C20.6293 6.67567 20.641 7.00253 20.641 9.61358C20.641 12.2246 20.6293 12.5515 20.5791 13.5769C20.5289 14.6005 20.3541 15.2997 20.0995 15.9111C19.8403 16.5523 19.4341 17.1332 18.9092 17.6134C18.3932 18.103 17.7692 18.4811 17.0811 18.7221C16.4248 18.9599 15.6741 19.1227 14.5753 19.1695C13.4745 19.2163 13.1236 19.2272 10.3205 19.2272C7.51746 19.2272 7.16656 19.2163 6.06571 19.1695C4.96692 19.1227 4.21627 18.9599 3.55989 18.7228C2.87152 18.4812 2.24791 18.1029 1.73247 17.614C1.20681 17.1333 0.800872 16.552 0.542171 15.9111C0.28691 15.2997 0.11215 14.6005 0.061923 13.5769C0.0116966 12.5515 0 12.2253 0 9.61358C0 7.00189 0.0123845 6.67567 0.061923 5.65086C0.11215 4.62734 0.287598 3.92747 0.541483 3.31604C0.800774 2.67482 1.20696 2.09392 1.73178 1.6138C2.24781 1.12415 2.87186 0.746014 3.55989 0.505033C4.21627 0.267258 4.96692 0.104468 6.06571 0.0576814ZM14.4914 1.78813C13.4029 1.74198 13.0761 1.73237 10.3205 1.73237C7.56494 1.73237 7.23812 1.74198 6.14965 1.78813C5.14374 1.83107 4.59744 1.98745 4.23347 2.11947C3.78516 2.27328 3.37958 2.51879 3.04662 2.83793C2.68609 3.1744 2.46179 3.49486 2.27533 3.94349C2.13291 4.28253 1.96571 4.79141 1.91962 5.72841C1.87008 6.74233 1.85976 7.04675 1.85976 9.61358C1.85976 12.1804 1.87008 12.4848 1.91962 13.4987C1.96571 14.4358 2.13359 14.9446 2.27533 15.2837C2.44055 15.7012 2.7041 16.079 3.04662 16.3892C3.37963 16.7083 3.78519 16.9538 4.23347 17.1077C4.59744 17.2404 5.14374 17.3961 6.14965 17.439C7.23812 17.4852 7.56425 17.4948 10.3205 17.4948C13.0768 17.4948 13.4029 17.4852 14.4914 17.439C15.4973 17.3961 16.0436 17.2397 16.4076 17.1077C16.8559 16.9539 17.2615 16.7084 17.5944 16.3892C17.937 16.079 18.2005 15.7013 18.3657 15.2837C18.5081 14.9446 18.6753 14.4358 18.7214 13.4987C18.7709 12.4848 18.7813 12.1804 18.7813 9.61358C18.7813 7.04675 18.7709 6.74233 18.7214 5.72841C18.6753 4.79141 18.5074 4.28253 18.3657 3.94349C18.1792 3.49486 17.9556 3.1744 17.5944 2.83793C17.2332 2.50209 16.8892 2.29316 16.4076 2.11947C16.0436 1.98681 15.4973 1.83107 14.4914 1.78813Z" fill="white"/>
</svg>
