<svg width="21" height="21" viewBox="0 0 21 21" fill="none" xmlns="http://www.w3.org/2000/svg">
<path d="M20.641 1.47802V18.6231C20.641 19.0151 20.4811 19.391 20.1965 19.6682C19.9119 19.9454 19.5258 20.1011 19.1233 20.1011H1.51772C1.1152 20.1011 0.729159 19.9454 0.444531 19.6682C0.159902 19.391 0 19.0151 0 18.6231L0 1.47802C0 1.08603 0.159902 0.710086 0.444531 0.432903C0.729159 0.15572 1.1152 0 1.51772 0L19.1233 0C19.5258 0 19.9119 0.15572 20.1965 0.432903C20.4811 0.710086 20.641 1.08603 20.641 1.47802ZM6.07089 7.68572H3.03544V17.1451H6.07089V7.68572ZM6.34408 4.43407C6.34568 4.21047 6.30204 3.98875 6.21565 3.78158C6.12926 3.5744 6.00181 3.38583 5.84058 3.22662C5.67935 3.06741 5.4875 2.94069 5.27598 2.85369C5.06446 2.76669 4.83741 2.72111 4.60781 2.71956H4.55317C4.08624 2.71956 3.63843 2.9002 3.30826 3.22173C2.9781 3.54326 2.79261 3.97936 2.79261 4.43407C2.79261 4.88879 2.9781 5.32488 3.30826 5.64641C3.63843 5.96794 4.08624 6.14858 4.55317 6.14858C4.78279 6.15408 5.01128 6.11547 5.22557 6.03494C5.43986 5.95442 5.63576 5.83357 5.80208 5.67929C5.96839 5.52501 6.10186 5.34033 6.19486 5.1358C6.28786 4.93127 6.33857 4.7109 6.34408 4.48728V4.43407ZM17.6056 11.3985C17.6056 8.5548 15.7479 7.44924 13.9023 7.44924C13.2981 7.41977 12.6964 7.54511 12.1574 7.81275C11.6184 8.08039 11.1609 8.48098 10.8305 8.97456H10.7455V7.68572H7.89216V17.1451H10.9276V12.1139C10.8837 11.5986 11.0504 11.0873 11.3914 10.691C11.7324 10.2947 12.2202 10.0454 12.7489 9.99735H12.8642C13.8295 9.99735 14.5459 10.5886 14.5459 12.0784V17.1451H17.5813L17.6056 11.3985Z" fill="white"/>
</svg>
