<svg width="23" height="15" viewBox="0 0 23 15" fill="none" xmlns="http://www.w3.org/2000/svg">
<path fill-rule="evenodd" clip-rule="evenodd" d="M19.959 0.448984C20.9239 0.693884 21.6871 1.41499 21.9463 2.32656C22.4215 3.98645 22.4359 7.42867 22.4359 7.42867C22.4359 7.42867 22.4359 10.8845 21.9607 12.5308C21.7015 13.4424 20.9383 14.1635 19.9734 14.4084C18.231 14.8574 11.2179 14.8574 11.2179 14.8574C11.2179 14.8574 4.20493 14.8574 2.46248 14.4084C1.49765 14.1635 0.734424 13.4424 0.475215 12.5308C0 10.8709 0 7.42867 0 7.42867C0 7.42867 0 3.98645 0.460814 2.34017C0.720022 1.42859 1.48325 0.707495 2.44808 0.462595C4.19053 0.0136023 11.2035 0 11.2035 0C11.2035 0 18.2166 0 19.959 0.448984ZM14.7893 7.42868L8.97148 10.6124V4.24496L14.7893 7.42868Z" fill="white"/>
</svg>
