<svg width="129" height="48" viewBox="0 0 129 48" fill="none" xmlns="http://www.w3.org/2000/svg">
<g clip-path="url(#clip0_32_295)">
<path d="M13.8877 13.1064V22.1942H4.47079V13.1064H0V34.7997H4.47079V26.0071H13.8877V34.7997H18.3585V13.1064H13.8877Z" fill="white"/>
<path d="M32.6667 27.7869C32.6667 28.6563 32.2771 29.4901 31.5834 30.1049C30.8898 30.7196 29.949 31.065 28.9681 31.065C27.9872 31.065 27.0464 30.7196 26.3528 30.1049C25.6591 29.4901 25.2695 28.6563 25.2695 27.7869V18.4953H21.0287V27.7869C21.0287 29.6513 21.8643 31.4394 23.3518 32.7578C24.8393 34.0761 26.8568 34.8168 28.9604 34.8168C31.0641 34.8168 33.0815 34.0761 34.569 32.7578C36.0565 31.4394 36.8922 29.6513 36.8922 27.7869V18.4953H32.6667V27.7869Z" fill="white"/>
<path d="M64.0881 19.4529C64.0881 17.5484 65.5097 16.9446 67.0672 16.9446C68.3223 16.9446 69.9805 17.7911 71.0648 18.8181L73.8424 15.9176C72.4558 14.2558 69.6432 13.1065 67.341 13.1065C62.741 13.1065 59.4136 15.4944 59.4136 19.4529C59.4136 26.7973 69.5424 24.4676 69.5424 28.5775C69.5424 29.8453 68.1537 30.9655 66.5634 30.9655C64.0553 30.9655 63.2426 29.8783 62.0904 28.729L59.0084 31.5693C60.9798 33.7145 63.4113 34.8036 66.3246 34.8036C70.6946 34.8036 74.2104 32.3866 74.2104 28.6086C74.2104 20.4547 64.0815 22.9882 64.0815 19.4529" fill="white"/>
<path d="M126.749 31.3341C124.243 31.3341 123.532 30.3731 123.532 28.9015V22.3881H127.426V19.0877H123.532V14.7331L119.232 16.4435V29.7111C119.232 33.1047 121.873 34.815 125.496 34.815C126.065 34.8242 126.632 34.7839 127.192 34.6947L128.241 31.272C127.768 31.3011 127.225 31.3302 126.749 31.3302" fill="white"/>
<path d="M48.8095 18.6049C46.7088 18.6049 45.2434 19.1446 43.8261 20.3774V13.2369H39.5788V26.4715C39.5788 31.4259 43.6202 34.8195 48.1611 34.8195C53.1992 34.8195 57.6306 31.3658 57.6306 26.7141C57.6306 22.1208 53.5519 18.6068 48.8095 18.6068V18.6049ZM48.7832 31.0318C47.8301 31.0318 46.8984 30.7813 46.1059 30.312C45.3134 29.8427 44.6957 29.1757 44.331 28.3952C43.9662 27.6148 43.8708 26.756 44.0567 25.9275C44.2427 25.099 44.7016 24.3379 45.3756 23.7406C46.0496 23.1433 46.9082 22.7365 47.8431 22.5717C48.7779 22.4069 49.7468 22.4915 50.6274 22.8148C51.508 23.138 52.2606 23.6855 52.7901 24.3878C53.3196 25.0902 53.6023 25.916 53.6023 26.7607C53.6023 27.8935 53.0946 28.9799 52.1908 29.7809C51.2871 30.5818 50.0613 31.0318 48.7832 31.0318Z" fill="white"/>
<path d="M94.9278 26.5153C94.9278 21.8559 90.5052 18.4099 85.4584 18.4099C80.9175 18.4099 76.876 21.8035 76.876 26.758V40.0003H81.1234V32.8501C82.5384 34.0809 84.0061 34.6226 86.1045 34.6226C90.8469 34.6226 94.9256 31.1106 94.9256 26.5153H94.9278ZM90.9061 26.4687C90.9061 27.3134 90.6235 28.1392 90.0939 28.8416C89.5644 29.544 88.8118 30.0914 87.9312 30.4147C87.0506 30.7379 86.0817 30.8225 85.1469 30.6577C84.2121 30.4929 83.3534 30.0861 82.6794 29.4888C82.0055 28.8915 81.5465 28.1304 81.3605 27.3019C81.1746 26.4734 81.27 25.6146 81.6348 24.8342C81.9995 24.0538 82.6172 23.3867 83.4097 22.9174C84.2022 22.4481 85.1339 22.1976 86.087 22.1976C87.3651 22.1976 88.5909 22.6476 89.4946 23.4486C90.3984 24.2495 90.9061 25.3359 90.9061 26.4687Z" fill="white"/>
<path d="M108.606 18.3496V14.6066C109.164 14.3756 109.637 14.0088 109.969 13.5489C110.301 13.089 110.479 12.555 110.481 12.009V11.9216C110.479 11.1587 110.136 10.4276 109.527 9.88807C108.919 9.34858 108.094 9.04458 107.233 9.04254H107.134C106.274 9.04458 105.449 9.34858 104.84 9.88807C104.231 10.4276 103.888 11.1587 103.886 11.9216V12.009C103.889 12.555 104.066 13.089 104.398 13.5489C104.73 14.0088 105.203 14.3756 105.761 14.6066V18.3496C104.156 18.5671 102.645 19.1565 101.38 20.0581L89.7835 12.0614C89.8661 11.7976 89.9102 11.5256 89.9149 11.2519C89.9158 10.6095 89.7017 9.98128 89.2998 9.44673C88.8978 8.91217 88.326 8.49527 87.6567 8.24873C86.9874 8.00219 86.2507 7.93708 85.5396 8.06166C84.8286 8.18623 84.1752 8.49487 83.662 8.94857C83.1489 9.40226 82.7991 9.98063 82.6568 10.6105C82.5146 11.2404 82.5863 11.8936 82.8629 12.4873C83.1394 13.0811 83.6085 13.5889 84.2106 13.9464C84.8128 14.3039 85.5211 14.4952 86.2459 14.496C86.8825 14.4939 87.5073 14.3432 88.0574 14.0591L99.4589 21.9257C98.4319 23.2989 97.8962 24.9146 97.9216 26.5619C97.947 28.2091 98.5324 29.8113 99.6013 31.1591L96.1315 34.2343C95.853 34.1557 95.563 34.1138 95.2707 34.11C94.675 34.11 94.0927 34.2666 93.5974 34.5599C93.102 34.8532 92.716 35.2701 92.488 35.7579C92.2601 36.2457 92.2004 36.7824 92.3166 37.3002C92.4329 37.818 92.7197 38.2937 93.1409 38.667C93.5622 39.0403 94.0988 39.2946 94.6831 39.3976C95.2673 39.5006 95.8729 39.4477 96.4233 39.2457C96.9736 39.0436 97.444 38.7015 97.775 38.2625C98.106 37.8235 98.2826 37.3074 98.2826 36.7794C98.2786 36.5204 98.2313 36.2633 98.1424 36.0165L101.575 32.9743C102.695 33.7328 103.997 34.2544 105.379 34.4993C106.762 34.7441 108.189 34.7058 109.553 34.3871C110.916 34.0685 112.179 33.478 113.246 32.6607C114.312 31.8434 115.154 30.8209 115.707 29.6713C116.259 28.5217 116.508 27.2754 116.435 26.0275C116.361 24.7796 115.967 23.5631 115.282 22.4709C114.597 21.3786 113.639 20.4395 112.482 19.7253C111.326 19.0111 110 18.5405 108.606 18.3496ZM107.185 30.6621C106.245 30.6621 105.327 30.4152 104.546 29.9527C103.765 29.4902 103.157 28.8329 102.797 28.0638C102.438 27.2947 102.344 26.4484 102.527 25.632C102.71 24.8155 103.163 24.0655 103.827 23.4769C104.491 22.8883 105.337 22.4874 106.258 22.325C107.179 22.1626 108.134 22.2459 109.002 22.5645C109.87 22.8831 110.612 23.4225 111.133 24.1147C111.655 24.8069 111.934 25.6206 111.934 26.4531C111.934 27.5694 111.433 28.6399 110.543 29.4293C109.652 30.2186 108.444 30.6621 107.185 30.6621Z" fill="white"/>
</g>
<defs>
<clipPath id="clip0_32_295">
<rect width="128.626" height="48" fill="white"/>
</clipPath>
</defs>
</svg>
