<svg width="405" height="405" viewBox="0 0 405 405" fill="none" xmlns="http://www.w3.org/2000/svg">
<path fill-rule="evenodd" clip-rule="evenodd" d="M396.295 145L386.17 117.993L266.595 162.825L360.669 76.4644L341.164 55.2179L244.654 143.816L298.874 24.5513L272.618 12.615L220.651 126.924L227.329 1.53396L198.528 3.48712e-06L191.462 132.678L144.818 8.26869L117.811 18.394L164.455 142.803L71.9042 47.4745L51.2105 67.5651L138.679 157.657L24.3694 105.69L12.4339 131.945L131.697 186.166L0.727692 182.856L2.49506e-05 211.688L127.661 214.915L8.08694 259.746L18.2123 286.752L137.787 241.921L43.7136 328.281L63.2168 349.527L159.729 260.931L105.509 380.194L131.763 392.13L183.731 277.82L177.053 403.212L205.854 404.744L212.92 272.069L259.564 396.477L286.57 386.351L239.926 261.941L332.478 357.27L353.171 337.18L265.703 247.087L380.012 299.055L391.949 272.8L272.685 218.58L403.653 221.889L404.382 193.057L276.72 189.831L396.295 145Z" fill="url(#paint0_linear_56_200)"/>
<defs>
<linearGradient id="paint0_linear_56_200" x1="391.232" y1="131.496" x2="-71.1035" y2="271.388" gradientUnits="userSpaceOnUse">
<stop stop-color="#0147FF"/>
<stop offset="1" stop-color="#0147FF" stop-opacity="0"/>
</linearGradient>
</defs>
</svg>
